# xmcd
#
# Track frame offsets:
# 150
# 9491
# 21678
# 33696
# 47035
# 63503
# 78928
# 90775
# 100055
# 118417
# 136435
# 150500
# 165523
# 177361
# 192274
# 207782
# 220716
# 233362
# 251173
# 267348
#
# Disc length: 3728 seconds
#
# Revision: 1
# Processed by: cddbd v1.5.1PL0 Copyright (c) Steve Scherf et al.
# Submitted via: CedeCatalogueitor 2.6.0.6 http://personales.ya.com/cdcatalogueitor
#
DISCID=0c0e8e14
DTITLE=VARIOS - Homenaje A DISCOMODER 1961 2001  [CD-2)
DYEAR=1999
DGENRE=
TTITLE0=Mari Carmen
TTITLE1=Ayer Cumpliste Los 16
TTITLE2=En Tinieblas
TTITLE3=Cuant Un Home Vol A Una Dona
TTITLE4=Mediterraneo
TTITLE5=La Radio
TTITLE6=Jersey Azul
TTITLE7=Hierba Verde
TTITLE8=Hoy Tengo Ganas De Ti
TTITLE9=Para Que No Me Olvides
TTITLE10=Es Muy Facil
TTITLE11=Maria Isabel
TTITLE12=Los Gitanos
TTITLE13=Les Bates
TTITLE14=Jinetes En El Cielo
TTITLE15=Cosas De Doña Asuncion
TTITLE16=Mackie "El Navaja"
TTITLE17=Jurame
TTITLE18=Mona Lisa
TTITLE19=Terciopelo
EXTD=
EXTT0=
EXTT1=
EXTT2=
EXTT3=
EXTT4=
EXTT5=
EXTT6=
EXTT7=
EXTT8=
EXTT9=
EXTT10=
EXTT11=
EXTT12=
EXTT13=
EXTT14=
EXTT15=
EXTT16=
EXTT17=
EXTT18=
EXTT19=
PLAYORDER=
